<?xml version="1.0" standalone="no"?>
<!DOCTYPE svg PUBLIC "-//W3C//DTD SVG 20010904//EN"
 "http://www.w3.org/TR/2001/REC-SVG-20010904/DTD/svg10.dtd">
<svg version="1.0" xmlns="http://www.w3.org/2000/svg"
 width="1080.000000pt" height="1920.000000pt" viewBox="0 0 1080.000000 1920.000000"
 preserveAspectRatio="xMidYMid meet">

<g transform="translate(0.000000,1920.000000) scale(0.100000,-0.100000)"
fill="#000000" stroke="none">
<path d="M4262 15240 c-109 -29 -187 -74 -273 -160 -129 -127 -185 -274 -176
-455 5 -111 31 -195 87 -289 28 -45 1558 -1705 1580 -1714 9 -4 1523 1624
1566 1684 66 92 114 239 114 349 0 129 -67 302 -154 401 -140 159 -373 236
-578 190 -96 -21 -200 -72 -261 -126 -27 -24 -190 -195 -364 -382 -174 -186
-319 -337 -323 -336 -5 2 -159 165 -343 363 -209 225 -354 372 -386 393 -149
96 -323 125 -489 82z"/>
<path d="M2900 13840 c-355 -57 -588 -402 -501 -742 24 -92 66 -178 117 -239
22 -25 193 -189 382 -364 188 -175 342 -321 342 -325 0 -3 -145 -141 -322
-306 -399 -370 -417 -388 -462 -474 -74 -140 -93 -290 -56 -434 29 -115 73
-189 165 -282 122 -124 247 -175 425 -175 115 -1 225 30 316 89 55 35 1714
1567 1714 1582 0 4 -379 359 -842 789 -804 747 -847 785 -923 821 -121 57
-242 78 -355 60z"/>
<path d="M7889 13840 c-75 -12 -179 -52 -242 -94 -52 -35 -1702 -1562 -1702
-1576 0 -6 1496 -1400 1639 -1527 186 -165 457 -192 691 -70 131 69 250 226
290 382 30 118 16 277 -36 394 -42 97 -93 151 -444 478 -198 185 -360 339
-360 343 0 5 142 139 315 300 173 160 343 320 378 357 106 112 162 254 162
413 0 167 -59 310 -174 425 -137 136 -335 203 -517 175z"/>
<path d="M4673 10895 c-422 -455 -785 -852 -806 -883 -47 -71 -86 -193 -93
-291 -17 -231 119 -468 328 -571 174 -85 352 -91 520 -17 98 44 142 81 345
300 109 116 217 232 240 257 l43 45 0 -612 0 -613 -620 0 -620 0 0 -200 0
-200 1390 0 1390 0 0 200 0 200 -570 0 -570 0 0 607 0 606 21 -19 c12 -10 116
-122 233 -247 233 -252 289 -298 421 -343 335 -112 692 84 780 431 19 75 19
202 0 283 -16 68 -62 168 -99 217 -33 43 -1545 1669 -1556 1673 -5 2 -354
-369 -777 -823z"/>
<path d="M1373 9137 c-502 -221 -913 -404 -913 -407 0 -3 417 -178 926 -389
841 -348 929 -382 953 -372 149 65 1651 757 1651 761 -1 6 -1675 804 -1693
807 -7 1 -423 -179 -924 -400z"/>
<path d="M7723 9137 c-502 -221 -913 -404 -913 -407 0 -3 417 -178 926 -389
846 -350 928 -382 952 -372 168 74 1652 757 1651 761 0 5 -1690 811 -1699 810
-3 0 -416 -182 -917 -403z"/>
<path d="M2148 7394 c-187 -33 -341 -116 -484 -258 -194 -195 -285 -428 -271
-701 12 -241 101 -440 272 -610 179 -179 369 -259 648 -272 l137 -6 0 135 0
135 -127 6 c-193 9 -298 46 -425 151 -190 158 -275 404 -223 651 38 183 176
360 345 444 105 51 194 71 328 71 l102 0 0 135 0 135 -112 -1 c-62 0 -147 -7
-190 -15z"/>
<path d="M2710 6480 l0 -930 465 0 465 0 0 135 0 135 -330 0 -330 0 0 795 0
795 -135 0 -135 0 0 -930z"/>
<path d="M4478 7395 c-108 -20 -228 -67 -317 -122 -98 -61 -243 -206 -304
-304 -159 -256 -180 -608 -53 -876 206 -433 690 -642 1141 -492 148 49 225 99
355 229 130 130 180 207 229 355 61 186 63 392 5 576 -35 112 -71 180 -144
277 -127 169 -307 291 -505 343 -106 27 -301 34 -407 14z m372 -284 c183 -58
358 -226 421 -405 43 -123 48 -289 12 -409 -93 -314 -411 -518 -731 -468 -152
24 -255 76 -366 186 -126 124 -184 254 -193 430 -6 128 13 222 68 335 82 166
258 304 439 345 90 20 264 14 350 -14z"/>
<path d="M5610 7398 c0 -7 119 -425 263 -928 l262 -915 68 -3 c37 -2 67 -2 67
0 0 4 515 1805 525 1837 6 21 4 21 -129 21 l-135 0 -9 -32 c-238 -859 -317
-1137 -323 -1131 -4 5 -79 267 -166 583 l-160 575 -131 3 c-102 2 -132 0 -132
-10z"/>
<path d="M6950 6480 l0 -930 465 0 465 0 0 135 0 135 -330 0 -330 0 0 265 0
265 265 0 266 0 -3 133 -3 132 -262 3 -263 2 0 260 0 260 330 0 330 0 0 135 0
135 -465 0 -465 0 0 -930z"/>
<path d="M8140 6480 l0 -931 133 3 132 3 3 198 2 197 73 0 c39 1 91 4 113 9
l42 8 77 -196 c43 -108 82 -202 88 -208 7 -9 50 -13 152 -13 78 0 144 2 147 6
3 3 -41 121 -98 264 l-103 259 88 89 c146 148 211 305 211 512 0 119 -20 214
-65 308 -60 127 -154 233 -276 312 -134 87 -245 110 -520 110 l-199 0 0 -930z
m455 645 c124 -32 235 -127 297 -253 32 -65 33 -70 33 -192 0 -119 -1 -128
-31 -190 -79 -166 -241 -270 -421 -270 l-63 0 0 460 0 460 63 0 c34 0 90 -7
122 -15z"/>
</g>
</svg>
